<svg width="200" height="154" viewBox="0 0 200 154" fill="none" xmlns="http://www.w3.org/2000/svg">
<g clip-path="url(#clip0)">
<path d="M161.806 51.4031L160.466 54.1091L166.37 57.0321L167.71 54.3261L161.806 51.4031Z" fill="#CCCCCC"/>
<path d="M155.959 63.2112L154.619 65.9172L160.523 68.8402L161.863 66.1342L155.959 63.2112Z" fill="#CCCCCC"/>
<path d="M89.4038 84.7117C89.6791 84.8701 89.9416 85.05 90.1886 85.2497L117.373 76.7899L118.906 70.0454L129.387 71.0285L127.833 83.232C127.708 84.2178 127.266 85.1364 126.574 85.8498C125.882 86.5631 124.977 87.0327 123.996 87.1881L92.004 92.2532C91.5372 93.3844 90.7372 94.3467 89.7102 95.0122C88.6832 95.6776 87.4779 96.0146 86.2547 95.9783C85.0315 95.942 83.8484 95.5342 82.8626 94.8091C81.8768 94.084 81.1352 93.0759 80.7363 91.919C80.3375 90.7621 80.3003 89.5112 80.6297 88.3326C80.9591 87.1541 81.6395 86.1037 82.5804 85.3213C83.5213 84.5389 84.6782 84.0615 85.8971 83.9526C87.1159 83.8437 88.3391 84.1085 89.4038 84.7117Z" fill="#FFB8B8"/>
<path d="M134.231 75.0744L134.05 71.9966V71.9935L134.002 71.1507L133.47 62.0882C133.629 60.1989 133.033 58.3235 131.812 56.8728C130.592 55.4221 128.846 54.5141 126.957 54.3477C126.414 54.299 125.867 54.3133 125.327 54.3904C123.722 54.6173 122.242 55.3795 121.125 56.5534C120.008 57.7272 119.321 59.244 119.174 60.8576L118.072 65.4439L116.145 73.4653C116.009 74.0265 116.065 74.6173 116.306 75.1425C116.546 75.6676 116.956 76.0965 117.47 76.3599C117.767 76.516 118.092 76.6115 118.426 76.6408L121.638 76.9279L124.731 77.2027L128.301 77.5202L128.557 77.5416L129.217 77.6027L131.424 77.7981H131.431C131.799 77.8278 132.17 77.7789 132.519 77.6547C132.867 77.5305 133.185 77.3337 133.452 77.0775C133.646 76.8881 133.81 76.6697 133.937 76.4301C134.16 76.0146 134.262 75.5448 134.231 75.0744V75.0744Z" fill="#E0E0E0"/>
<path d="M164.062 37.7531C164.062 48.2035 154.399 46.6229 142.479 46.6229C130.559 46.6229 120.896 48.2035 120.896 37.7531C120.896 27.3026 125.616 8.77832 142.479 8.77832C159.923 8.77832 164.062 27.3026 164.062 37.7531Z" fill="#8D00FF"/>
<path d="M152.676 42.3516C158.348 36.6798 158.348 27.4841 152.676 21.8123C147.004 16.1406 137.809 16.1406 132.137 21.8123C126.465 27.4841 126.465 36.6798 132.137 42.3516C137.809 48.0234 147.004 48.0234 152.676 42.3516Z" fill="#FFB8B8"/>
<path d="M162.85 52.7111C162.571 52.4417 162.274 52.1908 161.962 51.9599C159.987 50.4681 157.506 49.8114 155.052 50.1309L128.288 53.5171C125.837 53.8215 123.6 55.0686 122.053 56.9941C120.505 58.9196 119.768 61.3721 119.998 63.8316C120.075 64.6866 120.16 65.5874 120.255 66.5248C120.377 67.7003 120.514 68.9339 120.673 70.2103C120.936 72.3568 121.256 74.6225 121.638 76.9278C121.971 78.9126 122.35 80.9248 122.783 82.9126C122.908 83.4866 123.039 84.0586 123.174 84.6286C123.174 84.6303 123.174 84.632 123.174 84.6335C123.175 84.6351 123.176 84.6366 123.177 84.6378C123.192 84.708 123.207 84.7782 123.226 84.8454C123.225 84.8507 123.226 84.8561 123.229 84.8607C123.418 85.6545 123.617 86.4393 123.824 87.2149C123.904 87.5019 123.98 87.7858 124.059 88.0668C124.273 88.8301 124.499 89.5782 124.731 90.3141C126.475 95.7889 128.78 100.451 131.824 102.931C131.864 102.968 131.904 102.998 131.946 103.032L132.069 103.126L132.246 103.071L132.997 102.848L133.638 102.653L141.992 100.14L144.072 99.5141L150.753 97.5019H150.756L156.866 95.6637L157.611 95.4377L162.859 93.8591L163.027 91.8988L163.253 89.2973L163.388 87.7339L164.45 75.4042L165.07 68.2103L165.742 60.3996C165.867 58.9832 165.672 57.557 165.171 56.2262C164.671 54.8954 163.877 53.6941 162.85 52.7111Z" fill="#333333"/>
<path d="M177.815 112.372C177.745 112.168 177.678 111.963 177.608 111.761C174.469 102.601 169.84 95.6729 163.028 91.8988C163.025 91.8988 163.025 91.8958 163.021 91.8958L162.905 91.8317L156.97 93.8866L156.237 94.1401L155.473 94.4057L155.464 94.4088L149.907 96.3324L149.898 96.3355L145.538 97.8439H145.534L141.501 99.2393H141.498L140.56 99.566L133.51 102.006L132.692 102.29L131.959 102.543L131.846 102.583L131.824 102.931L131.321 111.761L131.287 112.372L130.658 123.392L109.77 152.983H124.06C128.848 152.984 133.629 152.619 138.362 151.893L151.769 137.444C151.882 137.328 152.024 137.244 152.18 137.203C152.336 137.161 152.501 137.163 152.656 137.208C152.812 137.254 152.952 137.34 153.061 137.459C153.171 137.578 153.246 137.725 153.278 137.884L155.247 147.655C164.95 144.224 174.026 139.23 182.118 132.87C181.177 125.282 179.803 118.366 177.815 112.372Z" fill="#333333"/>
<path d="M125.626 30.6572H131.37L133.904 23.5613L134.411 30.6572H137.157L138.635 26.5179L138.931 30.6572H159.331C159.331 28.6382 158.934 26.639 158.161 24.7737C157.388 22.9084 156.256 21.2135 154.828 19.7859C153.401 18.3582 151.706 17.2258 149.84 16.4531C147.975 15.6805 145.976 15.2828 143.957 15.2828H141C136.923 15.2828 133.012 16.9026 130.129 19.7859C127.246 22.6691 125.626 26.5796 125.626 30.6572Z" fill="#8D00FF"/>
<path d="M90.2927 107.605C89.3549 107.999 88.3421 108.183 87.3257 108.143C86.3092 108.103 85.3138 107.841 84.4096 107.375C83.5054 106.909 82.7144 106.25 82.0923 105.446C81.4702 104.641 81.0321 103.709 80.8089 102.717L56.2393 99.9342L64.4753 90.0715L86.5444 94.226C88.2365 93.9616 89.9668 94.327 91.4074 95.2531C92.8481 96.1791 93.899 97.6015 94.361 99.2506C94.8231 100.9 94.6641 102.661 93.9143 104.201C93.1645 105.741 91.8759 106.952 90.2927 107.605L90.2927 107.605Z" fill="#A0616A"/>
<path d="M77.0467 89.3492L66.6618 87.4927L65.9077 87.3584C65.3051 87.2507 64.732 87.0168 64.2261 86.6719C63.7203 86.327 63.2932 85.879 62.9728 85.3573C62.6524 84.8357 62.446 84.2521 62.3672 83.645C62.2883 83.0379 62.3389 82.4209 62.5154 81.8347L67.6146 64.8912L67.7672 64.3874C68.4039 62.2338 68.2905 59.9279 67.4457 57.8472C66.6009 55.7664 65.0746 54.0341 63.1168 52.934C61.7916 52.1981 60.3146 51.7778 58.8004 51.7058C57.2863 51.6338 55.776 51.912 54.387 52.5188C52.9979 53.1256 51.7675 54.0446 50.7915 55.2044C49.8155 56.3641 49.1202 57.7334 48.7596 59.2057L42.2558 85.7492L42.0146 86.7324C41.5604 88.5845 41.5108 90.5128 41.8694 92.3858C42.2279 94.2589 42.9862 96.0325 44.0924 97.5859C45.1986 99.1393 46.6268 100.436 48.2795 101.387C49.9323 102.339 51.7707 102.922 53.6696 103.099C53.6909 103.102 53.7092 103.102 53.7307 103.105L57.6238 103.45L62.6741 103.899L69.0253 104.464L74.9521 104.992C75.7283 105.062 76.5027 104.838 77.1215 104.364C77.7403 103.89 78.1583 103.201 78.2925 102.433C78.3016 102.39 78.3077 102.348 78.3138 102.305L79.5719 92.9126L79.5841 92.8271C79.6926 92.0318 79.4889 91.2255 79.0159 90.5771C78.5428 89.9287 77.8371 89.4886 77.0467 89.3492Z" fill="#CCCCCC"/>
<path d="M61.0466 18.1833C56.901 26.3338 53.6338 34.7403 44.4896 34.7403C40.0984 34.7403 35.8871 32.9959 32.782 29.8908C29.677 26.7858 27.9326 22.5745 27.9326 18.1833C27.9326 9.0391 35.3461 1.74077 44.4896 1.62629C53.7827 1.50992 68.7626 3.01271 61.0466 18.1833Z" fill="#2F2E41"/>
<path d="M71.4465 124.809L71.0708 121.059L70.7899 121.074L21.4189 123.453L21.5472 127.248L21.7641 133.749C29.4035 139.569 37.8871 144.187 46.9212 147.444L47.2419 144.958C47.27 144.756 47.3671 144.569 47.517 144.43C47.6668 144.291 47.8601 144.208 48.0642 144.195C48.2682 144.182 48.4705 144.24 48.6367 144.359C48.8029 144.478 48.9228 144.651 48.9762 144.848L49.9502 148.479C57.82 151.017 65.9925 152.497 74.2526 152.879L71.4465 124.809Z" fill="#333333"/>
<path d="M55.5745 30.8089C61.2463 25.1371 61.2463 15.9414 55.5745 10.2696C49.9028 4.59786 40.707 4.59786 35.0353 10.2696C29.3635 15.9414 29.3635 25.1371 35.0353 30.8089C40.707 36.4806 49.9028 36.4806 55.5745 30.8089Z" fill="#A0616A"/>
<path d="M74.2829 121.313L71.4034 112.372L71.3545 112.219L71.208 111.761L70.3866 109.215C70.1209 108.387 69.8675 107.557 69.6323 106.723C69.4156 105.972 69.213 105.219 69.0248 104.464C68.7561 103.413 68.5119 102.359 68.292 101.3C67.5468 97.7432 67.0499 94.1386 66.8049 90.5125C66.7377 89.508 66.6898 88.5014 66.6614 87.4927C66.4825 81.3103 67.0391 75.1285 68.3194 69.0774C69.434 63.8448 68.8387 58.3926 66.6212 53.5238C64.4036 48.6549 60.6811 44.627 56.0019 42.0332C52.9315 40.3362 49.533 39.3169 46.0355 39.0439C45.7942 39.0255 45.553 39.0103 45.3088 38.995C41.6141 38.7616 37.9142 39.3609 34.4822 40.7487C31.0502 42.1365 27.9737 44.2774 25.4798 47.0133C24.144 48.4684 22.9839 50.0753 22.0232 51.8011C19.3577 56.6036 18.3571 62.1534 19.1774 67.5843L22.6094 90.6286L21.8279 100.329L20.9057 111.761L20.8568 112.372L19.8736 124.561C19.827 125.13 19.9646 125.698 20.2659 126.182C20.5673 126.666 21.0164 127.04 21.5468 127.248C21.8575 127.373 22.1893 127.436 22.524 127.435C22.5729 127.435 22.6187 127.435 22.6676 127.432L71.4462 124.809L71.892 124.784C72.2989 124.763 72.6955 124.649 73.0511 124.45C73.4067 124.251 73.7118 123.973 73.9429 123.638C74.174 123.302 74.3248 122.918 74.3838 122.515C74.4427 122.112 74.4082 121.7 74.2829 121.313L74.2829 121.313Z" fill="#D9D9D9"/>
<path d="M60.7158 12.3314C57.397 14.6188 53.4578 15.8362 49.4271 15.8201C50.8649 16.817 52.5018 17.4904 54.2249 17.7939C48.8657 18.9435 43.327 18.9746 37.9553 17.8853C36.7613 17.6939 35.6091 17.2982 34.5494 16.7156C33.518 16.0895 32.6552 15.0925 32.4472 13.904C32.0902 11.8648 33.6792 10.0122 35.3304 8.7636C37.8587 6.88111 40.7737 5.58412 43.8647 4.96646C46.9557 4.3488 50.1453 4.42591 53.2028 5.19222C55.1993 5.70828 57.1992 6.5802 58.496 8.18351C59.7928 9.78681 60.1769 12.2586 58.9414 13.9096L60.7158 12.3314Z" fill="#2F2E41"/>
<path d="M61.4586 104.584C60.5296 104.998 59.521 105.203 58.5039 105.186C57.4868 105.168 56.486 104.927 55.5719 104.481C54.6579 104.035 53.8528 103.393 53.2134 102.602C52.574 101.811 52.1158 100.889 51.8712 99.902L27.2471 97.6519L35.2677 87.6133L57.4215 91.289C59.1075 90.9879 60.8453 91.3158 62.3057 92.2105C63.7661 93.1051 64.8475 94.5044 65.3452 96.1431C65.8428 97.7819 65.722 99.5462 65.0057 101.102C64.2894 102.658 63.0273 103.896 61.4586 104.584L61.4586 104.584Z" fill="#A0616A"/>
<path d="M47.8218 86.6194L42.2554 85.7492L36.64 84.8698C36.0353 84.7753 35.4574 84.554 34.9442 84.2203C34.4311 83.8866 33.9944 83.4481 33.6627 82.9336C33.3311 82.4191 33.1121 81.8403 33.02 81.2352C32.9279 80.6301 32.965 80.0123 33.1286 79.4225L38.0019 61.8652C38.5916 59.6984 38.4282 57.3955 37.5384 55.3336C36.6487 53.2718 35.0853 51.5731 33.1042 50.5156C31.7659 49.8016 30.2796 49.4092 28.7633 49.3694C27.247 49.3297 25.7422 49.6437 24.3683 50.2866C22.9902 50.9194 21.7779 51.8635 20.8268 53.0445C19.8756 54.2256 19.2117 55.6114 18.8874 57.0927L12.7408 84.7599C12.3268 86.6262 12.3208 88.5599 12.7233 90.4287C13.1258 92.2975 13.9272 94.0573 15.0729 95.5877C16.2185 97.1181 17.6812 98.3829 19.3609 99.2956C21.0406 100.208 22.8977 100.747 24.805 100.876L46.0661 102.302C46.8435 102.355 47.6125 102.114 48.2209 101.627C48.8293 101.141 49.2328 100.443 49.3515 99.6729C49.3607 99.6301 49.3637 99.5874 49.3698 99.5446L50.4233 90.1278L50.4324 90.0423C50.5232 89.2451 50.3022 88.4437 49.8156 87.8058C49.329 87.1678 48.6146 86.7427 47.8218 86.6194Z" fill="#D9D9D9"/>
<path d="M142.013 72.0239L140.739 72.7191L125.041 81.2844L123.767 81.9796C123.148 82.3178 122.69 82.8875 122.491 83.5637C122.292 84.2398 122.37 84.9672 122.706 85.5862L134.397 107.012C134.735 107.63 135.305 108.089 135.981 108.287C136.657 108.486 137.384 108.409 138.003 108.072L138.006 108.07L156.246 98.1178L156.25 98.1161C156.868 97.7778 157.327 97.2081 157.526 96.532C157.724 95.8558 157.647 95.1285 157.31 94.5094L145.62 73.0842C145.282 72.4659 144.712 72.007 144.036 71.8082C143.36 71.6095 142.632 71.687 142.013 72.0239Z" fill="#E0E0E0"/>
<path d="M142.38 72.6956L140.87 73.5191L125.642 81.828L124.133 82.6514C123.693 82.8923 123.366 83.2979 123.224 83.7794C123.083 84.2609 123.138 84.7789 123.378 85.2198L135.068 106.645C135.309 107.085 135.715 107.412 136.196 107.554C136.678 107.695 137.196 107.64 137.636 107.4L137.64 107.398L155.88 97.4461L155.883 97.4443C156.323 97.2035 156.65 96.7978 156.792 96.3163C156.933 95.8348 156.878 95.3168 156.638 94.876L144.948 73.4507C144.707 73.0104 144.301 72.6836 143.82 72.5421C143.338 72.4005 142.82 72.4558 142.38 72.6956Z" fill="white"/>
<path d="M142.808 78.7446C142.752 78.6418 142.657 78.5655 142.544 78.5324C142.431 78.4992 142.31 78.5118 142.207 78.5675L141.599 78.9004L135.404 82.2805C135.301 82.3372 135.225 82.4321 135.193 82.5446C135.16 82.657 135.173 82.7779 135.229 82.8808C135.285 82.9836 135.379 83.0601 135.492 83.0935C135.604 83.127 135.725 83.1146 135.828 83.0592L142.631 79.3462C142.734 79.2894 142.81 79.1945 142.843 79.0818C142.877 78.9692 142.864 78.848 142.808 78.7446Z" fill="#E6E6E6"/>
<path d="M145.125 79.1813C145.097 79.1303 145.06 79.0854 145.015 79.049C144.97 79.0126 144.918 78.9855 144.862 78.9693C144.807 78.9532 144.748 78.9482 144.691 78.9547C144.633 78.9612 144.577 78.979 144.527 79.0072L136.12 83.5935C136.07 83.6214 136.025 83.659 135.988 83.7042C135.952 83.7495 135.925 83.8014 135.908 83.8572C135.892 83.9129 135.887 83.9713 135.893 84.029C135.899 84.0867 135.917 84.1426 135.945 84.1935C135.973 84.2444 136.01 84.2894 136.056 84.3258C136.101 84.3621 136.153 84.3893 136.209 84.4056C136.264 84.4219 136.323 84.427 136.38 84.4208C136.438 84.4145 136.494 84.3969 136.545 84.3691L136.936 84.1554L139.382 82.821H139.385L144.948 79.7828C144.999 79.7553 145.045 79.7179 145.082 79.6726C145.119 79.6273 145.146 79.5752 145.163 79.5192C145.179 79.4632 145.184 79.4045 145.178 79.3464C145.171 79.2884 145.154 79.2323 145.125 79.1813Z" fill="#E6E6E6"/>
<path d="M135.99 86.4912L133.321 81.5965C133.293 81.5474 133.247 81.5112 133.193 81.4957C133.139 81.4803 133.081 81.4869 133.031 81.5141L131.736 82.2195L131.065 82.5858L127.459 84.5523L126.759 84.9339C126.71 84.9617 126.674 85.0077 126.659 85.062C126.643 85.1164 126.65 85.1746 126.677 85.224L126.848 85.5385L129.346 90.1187C129.373 90.1676 129.418 90.2037 129.472 90.2191C129.526 90.2346 129.584 90.2281 129.633 90.2011L133.938 87.853L134.61 87.4866L135.904 86.7813C135.929 86.768 135.951 86.7498 135.969 86.728C135.986 86.7062 136 86.6811 136.008 86.6541C136.016 86.6271 136.018 86.5988 136.015 86.5709C136.012 86.5429 136.003 86.5158 135.99 86.4912Z" fill="#E0E0E0"/>
<path d="M146.182 84.9553C146.126 84.8526 146.032 84.7763 145.919 84.7431C145.807 84.7099 145.686 84.7225 145.583 84.7782L136.356 89.8133C136.275 89.858 136.209 89.9271 136.169 90.011C136.129 90.0948 136.117 90.1891 136.133 90.2805C136.14 90.3278 136.155 90.3735 136.179 90.4149C136.202 90.457 136.232 90.4952 136.268 90.5278L136.271 90.5309C136.339 90.5923 136.425 90.6312 136.516 90.6421C136.607 90.653 136.699 90.6355 136.78 90.592L146.008 85.5569C146.059 85.5289 146.104 85.4911 146.14 85.4457C146.177 85.4003 146.204 85.3481 146.22 85.2922C146.236 85.2363 146.241 85.1778 146.235 85.12C146.228 85.0622 146.21 85.0062 146.182 84.9553Z" fill="#E6E6E6"/>
<path d="M148.503 85.3919C148.475 85.341 148.437 85.2961 148.392 85.2598C148.346 85.2235 148.294 85.1964 148.238 85.1803C148.182 85.1641 148.124 85.1591 148.066 85.1656C148.008 85.172 147.952 85.1898 147.902 85.2179L137.071 91.1263C136.99 91.1693 136.924 91.2373 136.884 91.3202C136.844 91.4032 136.831 91.4968 136.848 91.5874V91.5904C136.855 91.6377 136.87 91.6834 136.894 91.7248C136.917 91.7685 136.948 91.8077 136.985 91.8408C137.053 91.9035 137.139 91.9433 137.23 91.9542C137.322 91.9652 137.415 91.9469 137.495 91.9019L148.326 85.9935C148.429 85.9369 148.505 85.842 148.539 85.7292C148.572 85.6165 148.559 85.4953 148.503 85.3919Z" fill="#E6E6E6"/>
<path d="M133.266 94.7144C134.303 94.7144 135.144 93.8736 135.144 92.8364C135.144 91.7992 134.303 90.9584 133.266 90.9584C132.228 90.9584 131.388 91.7992 131.388 92.8364C131.388 93.8736 132.228 94.7144 133.266 94.7144Z" fill="#E0E0E0"/>
<path d="M147.509 63.7796L146.235 64.4748L130.537 73.0401L129.263 73.7353C128.645 74.0736 128.186 74.6433 127.987 75.3194C127.788 75.9956 127.866 76.7229 128.203 77.342L139.893 98.7672C140.231 99.3855 140.801 99.8444 141.477 100.043C142.153 100.242 142.88 100.164 143.499 99.8275L143.503 99.8257L161.743 89.8736L161.746 89.8718C162.364 89.5335 162.823 88.9638 163.022 88.2877C163.221 87.6116 163.143 86.8842 162.806 86.2652L151.116 64.8399C150.778 64.2216 150.208 63.7628 149.532 63.564C148.856 63.3652 148.128 63.4428 147.509 63.7796Z" fill="#CCCCCC"/>
<path d="M147.876 64.4514L146.367 65.2748L131.138 73.5837L129.629 74.4071C129.189 74.648 128.862 75.0537 128.72 75.5352C128.579 76.0167 128.634 76.5347 128.874 76.9755L140.564 98.4008C140.805 98.841 141.211 99.1678 141.692 99.3094C142.174 99.4509 142.692 99.3957 143.132 99.1558L143.136 99.154L161.376 89.2019L161.379 89.2001C161.819 88.9592 162.146 88.5535 162.288 88.072C162.429 87.5905 162.374 87.0725 162.134 86.6317L150.444 65.2064C150.203 64.7661 149.797 64.4394 149.316 64.2978C148.834 64.1563 148.317 64.2115 147.876 64.4514Z" fill="white"/>
<path d="M148.304 70.5004C148.248 70.3975 148.153 70.3213 148.04 70.2881C147.927 70.2549 147.806 70.2676 147.703 70.3233L144.57 72.0332L143.697 72.5095L140.9 74.0363C140.797 74.0929 140.721 74.1878 140.689 74.3003C140.656 74.4128 140.669 74.5336 140.725 74.6365C140.781 74.7394 140.875 74.8159 140.988 74.8493C141.1 74.8827 141.221 74.8703 141.324 74.8149L144.622 73.0164L145.312 72.6378L148.127 71.1019C148.23 71.0452 148.306 70.9502 148.34 70.8376C148.373 70.7249 148.36 70.6038 148.304 70.5004Z" fill="#E0E0E0"/>
<path d="M150.621 70.937C150.594 70.8861 150.556 70.8411 150.511 70.8047C150.466 70.7683 150.414 70.7413 150.358 70.7251C150.303 70.7089 150.244 70.7039 150.187 70.7104C150.129 70.7169 150.073 70.7348 150.023 70.763L145.653 73.1477L144.981 73.5141L141.617 75.3492C141.566 75.3771 141.521 75.4147 141.484 75.46C141.448 75.5052 141.421 75.5572 141.405 75.6129C141.388 75.6686 141.383 75.727 141.389 75.7847C141.396 75.8424 141.413 75.8983 141.441 75.9493C141.469 76.0002 141.506 76.0451 141.552 76.0815C141.597 76.1179 141.649 76.145 141.705 76.1613C141.76 76.1776 141.819 76.1828 141.876 76.1765C141.934 76.1702 141.99 76.1527 142.041 76.1248L145.406 74.2897L146.078 73.9233L150.444 71.5385C150.496 71.5111 150.541 71.4736 150.578 71.4283C150.615 71.3831 150.642 71.3309 150.659 71.2749C150.675 71.2189 150.68 71.1602 150.674 71.1022C150.668 71.0442 150.65 70.988 150.621 70.937Z" fill="#E0E0E0"/>
<path d="M141.486 78.2469L139.358 74.3447L138.991 73.6729L138.817 73.3523C138.79 73.3031 138.744 73.2669 138.689 73.2515C138.635 73.236 138.577 73.2426 138.527 73.2698L134.207 75.6271L132.255 76.6897C132.206 76.7175 132.17 76.7635 132.155 76.8178C132.139 76.8721 132.146 76.9303 132.173 76.9798L132.347 77.2973L132.536 77.6485L132.714 77.9691V77.9722L134.842 81.8745C134.869 81.9233 134.914 81.9595 134.968 81.9749C135.022 81.9904 135.08 81.9839 135.129 81.9569L141.4 78.537C141.425 78.5237 141.447 78.5056 141.465 78.4838C141.483 78.462 141.496 78.4368 141.504 78.4099C141.512 78.3829 141.514 78.3546 141.511 78.3266C141.508 78.2987 141.5 78.2716 141.486 78.2469Z" fill="#8D00FF"/>
<path d="M151.678 76.7111C151.622 76.6083 151.528 76.532 151.416 76.4988C151.303 76.4656 151.183 76.4783 151.08 76.534L148.322 78.0393L147.651 78.4057L144.988 79.8561L141.852 81.5691C141.801 81.5969 141.756 81.6346 141.719 81.6799C141.683 81.7252 141.656 81.7773 141.639 81.8332C141.623 81.889 141.617 81.9476 141.624 82.0055C141.63 82.0634 141.647 82.1195 141.675 82.1706C141.703 82.2217 141.741 82.2669 141.786 82.3034C141.831 82.34 141.883 82.3673 141.939 82.3837C141.995 82.4002 142.054 82.4055 142.112 82.3993C142.169 82.3931 142.226 82.3756 142.277 82.3477L148.075 79.1843L148.747 78.8179L151.504 77.3126C151.555 77.2846 151.6 77.2468 151.637 77.2014C151.673 77.156 151.7 77.1039 151.716 77.048C151.732 76.9921 151.737 76.9335 151.731 76.8757C151.724 76.8179 151.706 76.762 151.678 76.7111Z" fill="#E0E0E0"/>
<path d="M153.999 77.1477C153.971 77.0968 153.933 77.0518 153.887 77.0155C153.842 76.9792 153.79 76.9522 153.734 76.936C153.678 76.9199 153.62 76.9149 153.562 76.9213C153.504 76.9278 153.448 76.9456 153.397 76.9736L149.04 79.3523L148.368 79.7187L142.567 82.882C142.515 82.9097 142.47 82.9473 142.434 82.9925C142.397 83.0378 142.37 83.0898 142.353 83.1456C142.337 83.2015 142.331 83.26 142.337 83.3179C142.344 83.3758 142.361 83.4319 142.389 83.483C142.417 83.534 142.455 83.5791 142.5 83.6155C142.546 83.652 142.598 83.6791 142.654 83.6953C142.71 83.7116 142.768 83.7166 142.826 83.7101C142.884 83.7036 142.94 83.6858 142.991 83.6576L148.789 80.4943L149.461 80.1278L153.822 77.7492C153.925 77.6927 154.001 77.5977 154.034 77.485C154.067 77.3723 154.055 77.251 153.999 77.1477Z" fill="#E0E0E0"/>
<path d="M138.762 86.4702C139.799 86.4702 140.64 85.6293 140.64 84.5922C140.64 83.555 139.799 82.7142 138.762 82.7142C137.725 82.7142 136.884 83.555 136.884 84.5922C136.884 85.6293 137.725 86.4702 138.762 86.4702Z" fill="#E0E0E0"/>
<path d="M140.023 95.1503C140.339 95.1814 140.652 95.2374 140.96 95.3178L162.257 76.4243L160.88 69.6464L170.838 66.231L174.442 77.9931C174.733 78.9433 174.708 79.9624 174.371 80.8972C174.034 81.8321 173.402 82.6323 172.571 83.1777L145.495 100.955C145.535 102.178 145.202 103.384 144.54 104.413C143.877 105.442 142.917 106.245 141.787 106.715C140.658 107.185 139.411 107.3 138.215 107.045C137.018 106.789 135.927 106.175 135.088 105.285C134.248 104.395 133.7 103.27 133.515 102.06C133.331 100.85 133.519 99.6131 134.055 98.5128C134.59 97.4126 135.448 96.5016 136.515 95.901C137.581 95.3003 138.804 95.0384 140.023 95.1503Z" fill="#FFB8B8"/>
<path d="M176.918 67.9233L170.884 56.3996C170.263 54.647 168.985 53.2042 167.321 52.3758C165.656 51.5474 163.734 51.3983 161.962 51.9599C161.895 51.9783 161.831 51.9996 161.763 52.0241C159.967 52.652 158.493 53.9669 157.666 55.6803C156.838 57.3937 156.724 59.3655 157.348 61.163L159.769 73.8989C159.839 74.2634 159.986 74.6088 160.201 74.9112C160.416 75.2137 160.694 75.4662 161.015 75.6516C161.367 75.8571 161.763 75.9745 162.169 75.9935C162.504 76.0147 162.84 75.968 163.156 75.8561L164.45 75.4042L172.762 72.5096L175.479 71.563C175.83 71.4404 176.15 71.2438 176.418 70.9865C176.685 70.7293 176.895 70.4174 177.031 70.0721C177.167 69.7268 177.228 69.3561 177.208 68.9853C177.189 68.6146 177.09 68.2523 176.918 67.9233Z" fill="#D9D9D9"/>
<path d="M199.695 112.372H0.305344C0.224361 112.372 0.146696 112.34 0.0894328 112.283C0.0321698 112.225 0 112.148 0 112.067C0 111.986 0.0321698 111.908 0.0894328 111.851C0.146696 111.794 0.224361 111.761 0.305344 111.761H199.695C199.776 111.761 199.853 111.794 199.911 111.851C199.968 111.908 200 111.986 200 112.067C200 112.148 199.968 112.225 199.911 112.283C199.853 112.34 199.776 112.372 199.695 112.372Z" fill="#333333"/>
<path d="M34.6553 106.723V106.876C34.6563 107.911 34.9578 108.924 35.5231 109.791C36.0885 110.658 36.8933 111.343 37.8401 111.761C38.5192 112.065 39.2549 112.221 39.9988 112.219H89.3118V106.723H34.6553Z" fill="#4F4F4F"/>
<path d="M123.742 70.5004C122.959 68.885 121.754 67.5113 120.255 66.5248C119.575 66.0748 118.842 65.7116 118.072 65.4439C117.022 65.0775 115.919 64.8907 114.808 64.8912H67.4794C64.8484 64.8943 62.326 65.9408 60.4656 67.8012C58.6052 69.6616 57.5587 72.1839 57.5557 74.8149V102.296C57.5548 102.682 57.5773 103.067 57.6229 103.45C57.69 104.023 57.8064 104.589 57.9709 105.142C58.1341 105.686 58.3446 106.215 58.5999 106.723C59.4219 108.375 60.6885 109.764 62.2572 110.735C63.8259 111.706 65.6345 112.22 67.4794 112.219H114.808C116.111 112.22 117.402 111.964 118.606 111.465C119.81 110.967 120.904 110.236 121.826 109.314C122.747 108.392 123.478 107.298 123.977 106.094C124.475 104.89 124.732 103.599 124.731 102.296V74.8149C124.733 73.3203 124.395 71.8447 123.742 70.5004Z" fill="#4F4F4F"/>
<path d="M93.7396 90.9981C95.0887 90.9981 96.1824 89.9044 96.1824 88.5554C96.1824 87.2063 95.0887 86.1126 93.7396 86.1126C92.3905 86.1126 91.2969 87.2063 91.2969 88.5554C91.2969 89.9044 92.3905 90.9981 93.7396 90.9981Z" fill="white"/>
</g>
<defs>
<clipPath id="clip0">
<rect width="200" height="153.236" fill="white"/>
</clipPath>
</defs>
</svg>
