<svg width="181" height="200" viewBox="0 0 181 200" fill="none" xmlns="http://www.w3.org/2000/svg">
<g clip-path="url(#clip0)">
<path d="M198.114 135.284C192.396 139.942 187.15 145.152 182.452 150.837C175.1 159.705 169.15 169.647 164.811 180.318C164.493 181.096 165.757 181.435 166.071 180.665C173.171 163.323 184.506 148.039 199.039 136.209C199.691 135.677 198.762 134.757 198.114 135.284Z" fill="white"/>
<path d="M35.5141 182.313H17.468C16.8582 182.312 16.2736 182.069 15.8424 181.638C15.4112 181.207 15.1687 180.622 15.168 180.013V142.505C15.1687 141.895 15.4112 141.311 15.8424 140.879C16.2736 140.448 16.8582 140.206 17.468 140.205H35.5141C36.1239 140.206 36.7085 140.448 37.1397 140.879C37.5709 141.311 37.8134 141.895 37.8141 142.505V180.013C37.8134 180.622 37.5709 181.207 37.1397 181.638C36.7085 182.069 36.1239 182.312 35.5141 182.313Z" fill="#8D00FF"/>
<path d="M78.3461 182.108H60.3C59.6902 182.107 59.1056 181.864 58.6744 181.433C58.2432 181.002 58.0007 180.417 58 179.808V107.3C58.0007 106.69 58.2432 106.106 58.6744 105.674C59.1056 105.243 59.6902 105.001 60.3 105H78.3461C78.9559 105.001 79.5405 105.243 79.9717 105.674C80.4029 106.106 80.6454 106.69 80.6461 107.3V179.808C80.6454 180.417 80.4029 181.002 79.9717 181.433C79.5405 181.864 78.9559 182.107 78.3461 182.108Z" fill="#D9D9D9"/>
<path d="M121.346 182.108H103.3C102.69 182.107 102.106 181.864 101.674 181.433C101.243 181.002 101.001 180.417 101 179.808V60.3C101.001 59.6902 101.243 59.1056 101.674 58.6744C102.106 58.2433 102.69 58.0007 103.3 58H121.346C121.956 58.0007 122.541 58.2433 122.972 58.6744C123.403 59.1056 123.645 59.6902 123.646 60.3V179.808C123.645 180.417 123.403 181.002 122.972 181.433C122.541 181.864 121.956 182.107 121.346 182.108Z" fill="#D9D9D9"/>
<path d="M164.36 182.49H146.314C145.704 182.489 145.119 182.246 144.688 181.815C144.257 181.384 144.014 180.799 144.014 180.19V12.1127C144.014 11.503 144.257 10.9184 144.688 10.4872C145.119 10.056 145.704 9.81345 146.314 9.81274H164.36C164.97 9.81345 165.554 10.056 165.985 10.4872C166.417 10.9184 166.659 11.503 166.66 12.1127V180.19C166.659 180.799 166.417 181.384 165.985 181.815C165.554 182.246 164.97 182.489 164.36 182.49Z" fill="#8D00FF"/>
<path d="M52.1245 78.6806C52.19 78.1646 52.1415 77.6405 51.9825 77.1452C51.8235 76.6499 51.5578 76.1955 51.2042 75.814C50.8506 75.4325 50.4176 75.1332 49.9358 74.9371C49.454 74.741 48.9351 74.6529 48.4155 74.6791L42.1253 63.1405L40.71 68.0944L45.0194 78.6693C45.1212 79.5392 45.5386 80.3415 46.1924 80.9241C46.8463 81.5068 47.6911 81.8294 48.5669 81.8308C49.4427 81.8322 50.2886 81.5123 50.9443 80.9317C51.6 80.3511 52.0199 79.5502 52.1245 78.6806V78.6806Z" fill="#A0616A"/>
<path d="M3.66113 124.24L7.16456 126.798L18.6982 114.501L13.5271 110.726L3.66113 124.24Z" fill="#A0616A"/>
<path d="M11.5459 134.984L0.534218 126.945L3.64025 122.691L10.3974 127.624C11.5258 128.448 12.2807 129.686 12.4961 131.066C12.7115 132.447 12.3697 133.856 11.5459 134.984L11.5459 134.984Z" fill="#333333"/>
<path d="M22.197 137.78L26.5351 137.779L28.5988 121.047L22.1963 121.047L22.197 137.78Z" fill="#A0616A"/>
<path d="M34.9014 141.807L21.2674 141.808L21.2672 136.54L29.6335 136.54C31.0305 136.54 32.3704 137.095 33.3583 138.082C34.3463 139.07 34.9013 140.41 34.9014 141.807Z" fill="#333333"/>
<path d="M35.2255 72.5174C35.2255 72.5174 37.3486 93.0405 32.0409 107.194L28.1486 134.087H21.4255L22.1332 102.241L19.6562 73.9328C19.6562 73.9328 24.6101 61.1943 35.2255 72.5174Z" fill="#333333"/>
<path d="M12.225 73.9326L19.3019 98.348L5.50195 120.286L12.4019 126.125L28.1481 101.533L23.5481 71.4557L12.225 73.9326Z" fill="#333333"/>
<path d="M30.2728 19.1835C35.0727 19.1835 38.9637 15.2925 38.9637 10.4926C38.9637 5.69283 35.0727 1.80182 30.2728 1.80182C25.473 1.80182 21.582 5.69283 21.582 10.4926C21.582 15.2925 25.473 19.1835 30.2728 19.1835Z" fill="#A0616A"/>
<path d="M23.0181 22.4482C23.0181 22.4482 28.3257 18.9097 34.3411 26.6943L35.9334 75.702C35.9334 75.702 31.3334 69.3328 21.7796 75.3482C12.2257 81.3635 10.1027 74.6405 10.1027 74.6405C10.1027 74.6405 3.37959 24.0405 23.0181 22.4482Z" fill="#D9D9D9"/>
<path d="M33.9125 26.5708C35.4391 26.6533 36.8812 27.2974 37.9614 28.3792C39.0416 29.4609 39.6837 30.9039 39.764 32.4306L40.8868 53.7636L48.3176 73.9328L44.0714 77.4713L30.2714 53.4097L27.446 33.6322C27.3165 32.7257 27.3896 31.8018 27.66 30.9269C27.9305 30.052 28.3915 29.248 29.0099 28.5727C29.6283 27.8974 30.3888 27.3676 31.2365 27.0214C32.0842 26.6753 32.9982 26.5214 33.9125 26.5708Z" fill="#D9D9D9"/>
<path d="M23.8871 17.0116C25.3079 18.5251 27.9465 17.7126 28.1316 15.6451C28.1462 15.4845 28.1451 15.323 28.1285 15.1627C28.0329 14.2468 27.5038 13.4153 27.6306 12.4483C27.6592 12.2077 27.7489 11.9783 27.8911 11.782C29.0232 10.2659 31.681 12.4601 32.7495 11.0876C33.4047 10.2461 32.6345 8.92106 33.1373 7.98046C33.8009 6.73903 35.7664 7.35143 36.999 6.67156C38.3704 5.91512 38.2884 3.81098 37.3856 2.53114C36.2847 0.970326 34.3544 0.137459 32.4481 0.0174166C30.5418 -0.102626 28.6487 0.412694 26.869 1.10625C24.8469 1.89427 22.8418 2.98334 21.5974 4.76135C20.0841 6.9236 19.9385 9.83054 20.6953 12.3589C21.1557 13.8969 22.7269 15.7758 23.8871 17.0116Z" fill="#333333"/>
</g>
<defs>
<clipPath id="clip0">
<rect width="200" height="182.759" fill="white"/>
</clipPath>
</defs>
</svg>
