<svg width="181" height="200" viewBox="0 0 181 200" fill="none" xmlns="http://www.w3.org/2000/svg">
<g clip-path="url(#clip0)">
<path d="M38.1816 65.0244C46.4156 65.0244 53.0906 58.3494 53.0906 50.1153C53.0906 41.8813 46.4156 35.2062 38.1816 35.2062C29.9475 35.2062 23.2725 41.8813 23.2725 50.1153C23.2725 58.3494 29.9475 65.0244 38.1816 65.0244Z" fill="#8D00FF"/>
<path d="M34.2386 84.5878L27.4922 79.4248L3.33966 123.171C2.58111 123.309 1.87991 123.667 1.32345 124.2C0.766983 124.734 0.379874 125.419 0.210365 126.171C0.0408565 126.924 0.0964492 127.709 0.370211 128.43C0.643973 129.15 1.12379 129.775 1.74987 130.225C2.37595 130.674 3.12061 130.93 3.89101 130.96C4.66141 130.989 5.42348 130.792 6.08225 130.391C6.74101 129.99 7.26733 129.405 7.59561 128.707C7.92388 128.01 8.03959 127.231 7.9283 126.468L34.2386 84.5878Z" fill="#FFB8B8"/>
<path d="M95.8185 109.417C95.5427 108.619 95.0171 107.931 94.3197 107.455C93.6222 106.979 92.79 106.74 91.9462 106.774L53.0313 76.248L47.1943 82.4204L88.1893 110.994C88.2311 111.551 88.3911 112.093 88.6588 112.583C88.9264 113.073 89.2956 113.501 89.7415 113.837C90.1874 114.173 90.6999 114.41 91.2449 114.533C91.7898 114.655 92.3545 114.66 92.9015 114.547C93.4484 114.434 93.9649 114.206 94.4166 113.877C94.8683 113.549 95.2447 113.128 95.5207 112.642C95.7968 112.157 95.9661 111.618 96.0175 111.062C96.0688 110.506 96.001 109.945 95.8185 109.417V109.417Z" fill="#FFB8B8"/>
<path d="M50.6543 194.557H55.239L57.4208 176.874H50.6543V194.557Z" fill="#FFB8B8"/>
<path d="M64.0811 198.814H49.6725V193.247H58.5141C59.9906 193.247 61.4065 193.834 62.4505 194.878C63.4945 195.922 64.0811 197.338 64.0811 198.814V198.814Z" fill="#333333"/>
<path d="M14.3281 190.464L18.5401 192.275L27.527 176.889L21.3103 174.218L14.3281 190.464Z" fill="#FFB8B8"/>
<path d="M24.9824 199.677L11.7445 193.988L13.9426 188.873L22.0659 192.364C23.4224 192.947 24.4917 194.045 25.0387 195.416C25.5856 196.788 25.5654 198.32 24.9824 199.677Z" fill="#333333"/>
<path d="M28.6175 109.77L6.80859 178.473L35.4327 181.54L38.1817 141.388L41.9072 181.54L65.0792 178.814C65.0792 178.814 60.8934 115.222 53.2745 111.133C45.6556 107.043 28.6175 109.77 28.6175 109.77Z" fill="#333333"/>
<path d="M40.4427 68.6183C45.7123 68.6183 49.9841 64.3465 49.9841 59.077C49.9841 53.8074 45.7123 49.5356 40.4427 49.5356C35.1732 49.5356 30.9014 53.8074 30.9014 59.077C30.9014 64.3465 35.1732 68.6183 40.4427 68.6183Z" fill="#FFB8B8"/>
<path d="M40.137 112.849C33.5118 112.849 27.1359 112.556 26.8072 111.986C26.7794 111.938 26.7688 111.882 26.7773 111.828C26.7858 111.773 26.8129 111.723 26.8539 111.686C27.3097 111.014 26.2396 100.105 23.9862 82.5088C23.7308 80.4482 24.1867 78.3621 25.2783 76.5958C26.3699 74.8295 28.0319 73.4889 29.9892 72.7957L30.0313 72.7862L50.0001 70.8142L50.2238 70.8771C52.199 71.4263 53.9287 72.6311 55.1287 74.2935C56.3286 75.9559 56.9273 77.9771 56.8266 80.0248C56.3117 91.2496 55.4477 110.261 55.4477 111.473C55.4477 111.803 54.9887 111.968 54.5888 112.076C52.6446 112.597 46.2834 112.849 40.137 112.849Z" fill="#333333"/>
<path d="M27.0244 52.7574C32.0984 55.52 37.8096 56.9 43.5852 56.7588C45.7973 56.7014 48.2347 56.299 49.6357 54.586C51.2165 52.6532 50.8209 49.6333 49.2961 47.656C47.7713 45.6788 45.3856 44.5641 43.0059 43.8082C40.7542 43.093 38.3415 42.6323 36.0325 43.1323C34.814 43.3962 33.6665 43.9194 32.6683 44.6663C31.67 45.4132 30.8442 46.3663 30.2472 47.4609C29.6502 48.5554 29.2959 49.7657 29.2083 51.0094C29.1208 52.2531 29.3022 53.5011 29.74 54.6685" fill="#8D00FF"/>
<path d="M27.6361 47.9335C32.2552 47.9335 35.9997 44.189 35.9997 39.5699C35.9997 34.9508 32.2552 31.2062 27.6361 31.2062C23.017 31.2062 19.2725 34.9508 19.2725 39.5699C19.2725 44.189 23.017 47.9335 27.6361 47.9335Z" fill="#8D00FF"/>
<path d="M178.768 40.4973L145.938 21.3623L150.149 14.1365C150.269 13.9302 150.348 13.7022 150.38 13.4656C150.412 13.229 150.397 12.9884 150.337 12.7575C150.276 12.5267 150.17 12.31 150.025 12.12C149.881 11.93 149.7 11.7703 149.494 11.6501C149.288 11.5298 149.06 11.4514 148.823 11.4193C148.587 11.3871 148.346 11.4019 148.115 11.4627C147.884 11.5236 147.668 11.6293 147.477 11.7739C147.287 11.9185 147.128 12.099 147.008 12.3053L142.796 19.5312L109.965 0.396231C109.299 0.00772221 108.505 -0.100073 107.759 0.0965534C107.013 0.29318 106.376 0.778123 105.987 1.4447L80.3518 45.4284C79.9633 46.095 79.8555 46.8886 80.0521 47.6347C80.2487 48.3808 80.7337 49.0182 81.4003 49.4067L114.231 68.5417L85.4828 117.866C85.3625 118.073 85.284 118.3 85.2518 118.537C85.2196 118.774 85.2344 119.014 85.2952 119.245C85.356 119.476 85.4618 119.693 85.6063 119.883C85.7509 120.073 85.9316 120.233 86.1379 120.353C86.3442 120.473 86.5722 120.552 86.8089 120.584C87.0455 120.616 87.2862 120.601 87.5171 120.54C87.748 120.479 87.9647 120.374 88.1547 120.229C88.3447 120.084 88.5043 119.904 88.6245 119.697L117.373 70.3726L150.203 89.5076C150.533 89.7 150.898 89.8254 151.277 89.8769C151.655 89.9283 152.04 89.9047 152.41 89.8073C152.779 89.7099 153.126 89.5408 153.43 89.3094C153.734 89.0781 153.989 88.7892 154.182 88.4591L179.817 44.4754C180.009 44.1454 180.135 43.7807 180.186 43.4021C180.238 43.0236 180.214 42.6386 180.117 42.2692C180.019 41.8998 179.85 41.5532 179.619 41.2491C179.387 40.9451 179.098 40.6896 178.768 40.4973Z" fill="#D9D9D9"/>
<path d="M133.233 66.9902C134.245 65.2551 129.719 60.7332 123.126 56.8903C116.533 53.0475 110.368 51.3388 109.356 53.0739C108.345 54.809 112.87 59.3308 119.464 63.1737C126.057 67.0166 132.222 68.7253 133.233 66.9902Z" fill="#BDBDBD"/>
<path d="M130.084 62.4065C139.724 62.4065 147.539 54.5918 147.539 44.9519C147.539 35.312 139.724 27.4974 130.084 27.4974C120.445 27.4974 112.63 35.312 112.63 44.9519C112.63 54.5918 120.445 62.4065 130.084 62.4065Z" fill="#8D00FF"/>
<path d="M137.678 53.5869C136.667 55.322 129.534 56.4163 124.329 53.3824C119.123 50.3486 117.817 44.3354 118.828 42.6003C119.839 40.8652 122.785 44.0652 127.991 47.099C133.196 50.1329 138.689 51.8518 137.678 53.5869Z" fill="white"/>
<path d="M126.286 39.219C128.294 39.219 129.922 37.5909 129.922 35.5826C129.922 33.5743 128.294 31.9462 126.286 31.9462C124.277 31.9462 122.649 33.5743 122.649 35.5826C122.649 37.5909 124.277 39.219 126.286 39.219Z" fill="white"/>
<path d="M139.481 46.9096C141.489 46.9096 143.117 45.2815 143.117 43.2732C143.117 41.2649 141.489 39.6368 139.481 39.6368C137.473 39.6368 135.845 41.2649 135.845 43.2732C135.845 45.2815 137.473 46.9096 139.481 46.9096Z" fill="white"/>
</g>
<defs>
<clipPath id="clip0">
<rect width="180.364" height="200" fill="white"/>
</clipPath>
</defs>
</svg>
