<svg width="181" height="181" viewBox="0 0 181 181" fill="none" xmlns="http://www.w3.org/2000/svg">
<path d="M172.201 2.51387e-07H8.79646C6.46349 2.51387e-07 4.22608 0.921907 2.57642 2.56291C0.926769 4.20391 0 6.42958 0 8.75031V171.298C0 173.619 0.926769 175.844 2.57642 177.485C4.22608 179.126 6.46349 180.048 8.79646 180.048H172.201C173.357 180.049 174.501 179.822 175.568 179.383C176.636 178.943 177.606 178.299 178.423 177.486C179.24 176.674 179.888 175.709 180.33 174.647C180.772 173.585 181 172.447 181 171.298V8.75031C181 7.60103 180.772 6.463 180.33 5.40123C179.888 4.33945 179.24 3.37473 178.423 2.56217C177.606 1.7496 176.636 1.1051 175.568 0.665477C174.501 0.225856 173.357 -0.000275224 172.201 2.51387e-07ZM123.496 139.491C118.085 144.99 111.632 149.367 104.509 152.368C97.3863 155.37 89.736 156.936 82.0007 156.977C74.2654 157.018 66.5987 155.533 59.4444 152.607C52.29 149.681 45.7901 145.372 40.3206 139.931C34.8512 134.489 30.521 128.023 27.5804 120.906C24.6399 113.789 23.1475 106.162 23.1896 98.4672C23.2317 90.7725 24.8074 83.1625 27.8256 76.0776C30.8439 68.9927 35.2446 62.5735 40.7732 57.1916L94.233 4.01231L116.661 26.3201L63.1987 79.5016C58.1755 84.4985 55.3534 91.2757 55.3534 98.3424C55.3534 105.409 58.1755 112.186 63.1987 117.183C68.222 122.18 75.035 124.987 82.1389 124.987C89.2429 124.987 96.0559 122.18 101.079 117.183L154.541 64.0018L176.967 86.3097L123.496 139.491Z" fill="#FF42B3"/>
</svg>
