<svg width="182" height="48" viewBox="0 0 182 48" fill="none" xmlns="http://www.w3.org/2000/svg">
<path d="M71.6419 39.6485C68.3587 39.6485 65.7106 38.7921 63.6977 37.0794C61.6848 35.3667 60.6704 33.1052 60.6546 30.2949H67.545C67.5608 31.4167 67.9674 32.2773 68.7647 32.8766C69.5621 33.476 70.6155 33.7762 71.9247 33.7772C72.9654 33.7772 73.8455 33.5481 74.5649 33.0899C74.9021 32.8926 75.1801 32.6082 75.3697 32.2666C75.5592 31.925 75.6535 31.5386 75.6425 31.1481C75.6486 30.7486 75.5195 30.3588 75.2759 30.0421C74.9685 29.683 74.5725 29.4107 74.1273 29.2521C73.6281 29.0461 73.1136 28.8797 72.5883 28.7544C72.0827 28.6364 71.4197 28.5063 70.5991 28.3641C69.8565 28.2377 69.2329 28.1229 68.7284 28.0197C68.2239 27.9165 67.6119 27.7627 66.8924 27.5583C66.2681 27.3865 65.6609 27.1575 65.0786 26.8742C64.5328 26.5941 64.0135 26.2652 63.527 25.8914C63.0164 25.5175 62.5757 25.0564 62.2251 24.5295C61.8721 23.9671 61.6008 23.3575 61.4193 22.7188C61.2003 21.9568 61.0939 21.1669 61.1033 20.3741C61.1033 17.8945 62.074 15.8779 64.0153 14.3243C65.9566 12.7706 68.4983 11.9927 71.6403 11.9906C74.8003 11.9906 77.3341 12.7922 79.2417 14.3954C81.1493 15.9985 82.1121 18.1099 82.13 20.7296H75.4071C75.3913 19.7026 75.04 18.9289 74.3532 18.4086C73.6664 17.8882 72.6995 17.6286 71.4523 17.6296C70.3642 17.6296 69.5079 17.8587 68.8832 18.3169C68.588 18.5191 68.3479 18.7917 68.1846 19.1101C68.0213 19.4285 67.9399 19.7825 67.9479 20.1402C67.9451 20.4051 67.999 20.6674 68.1059 20.9097C68.2249 21.1569 68.4146 21.3631 68.651 21.5022C68.9122 21.6676 69.1571 21.8098 69.3857 21.9288C69.7194 22.083 70.0684 22.2016 70.4269 22.2827C70.8925 22.4017 71.2717 22.4886 71.5645 22.5434L72.9012 22.7931C75.4429 23.2513 77.2741 23.7253 78.3948 24.2151C81.222 25.4791 82.635 27.6911 82.634 30.8511C82.634 33.5192 81.6333 35.6543 79.632 37.2564C77.6306 38.8585 74.9673 39.6559 71.6419 39.6485Z" fill="#8D00FF"/>
<path d="M98.0469 39.6485C96.1621 39.66 94.2941 39.2936 92.5532 38.5709C90.9003 37.8971 89.3968 36.9032 88.1292 35.6463C86.8741 34.38 85.8841 32.876 85.2173 31.2223C84.5035 29.4875 84.141 27.6283 84.1508 25.7524C84.1395 23.884 84.5021 22.0322 85.2173 20.3061C85.8847 18.6654 86.8749 17.1755 88.1292 15.9248C89.4045 14.6811 90.9142 13.7031 92.5706 13.0476C94.3279 12.3401 96.2063 11.9821 98.1006 11.9937C101.471 11.9916 104.368 12.9749 106.791 14.9436C109.213 16.9123 110.748 19.5135 111.395 22.7472H104.368C103.85 21.5088 102.968 20.4563 101.84 19.7278C100.709 19.0059 99.3906 18.6313 98.0485 18.6503C96.1388 18.6503 94.5404 19.335 93.2532 20.7043C91.966 22.0736 91.3224 23.7668 91.3224 25.784C91.3224 27.8053 91.9697 29.5144 93.2642 30.9111C93.8642 31.5838 94.6021 32.1191 95.4277 32.4807C96.2534 32.8422 97.1473 33.0215 98.0485 33.0062C99.4 33.0324 100.726 32.6352 101.84 31.8701C102.929 31.1117 103.771 30.03 104.368 28.6248H111.496C110.881 31.926 109.338 34.5898 106.866 36.6165C104.395 38.6431 101.455 39.6537 98.0469 39.6485Z" fill="#8D00FF"/>
<path d="M135.605 12.6779H140.909V38.868H135.344L134.728 36.5232C132.344 38.6067 129.519 39.6485 126.251 39.6485C123.662 39.6485 121.318 39.0486 119.217 37.8489C117.145 36.6765 115.44 34.9511 114.292 32.8655C113.108 30.742 112.517 28.3778 112.517 25.7729C112.517 23.168 113.108 20.8222 114.292 18.7356C115.444 16.6615 117.149 14.9483 119.217 13.787C121.318 12.5957 123.662 11.9995 126.251 11.9985C129.582 11.9985 132.447 13.0644 134.847 15.1964L135.605 12.6779ZM121.717 30.9016C123.066 32.2709 124.767 32.9556 126.819 32.9556C128.871 32.9556 130.572 32.2767 131.922 30.919C133.271 29.5623 133.946 27.8496 133.946 25.7808C133.946 23.7121 133.271 21.9957 131.922 20.6316C130.573 19.2749 128.872 18.596 126.819 18.595C124.766 18.5939 123.065 19.2786 121.717 20.649C120.365 22.0183 119.69 23.7273 119.691 25.7761C119.692 27.8248 120.368 29.5333 121.717 30.9016Z" fill="#8D00FF"/>
<path d="M145.764 38.9153V3.27686H152.844V38.9153H145.764Z" fill="#8D00FF"/>
<path d="M169.635 39.6485C165.941 39.6485 162.962 38.5673 160.697 36.4048C158.432 34.2423 157.3 31.393 157.298 27.857V12.7316H164.378V27.0575C164.378 28.9198 164.844 30.376 165.775 31.4262C166.706 32.4764 167.993 33.003 169.635 33.0062C171.277 33.0062 172.556 32.4795 173.471 31.4262C174.387 30.3729 174.844 28.9203 174.844 27.0685V12.7316H181.926V27.8633C181.926 31.3993 180.805 34.2486 178.562 36.4111C176.32 38.5736 173.344 39.6527 169.635 39.6485Z" fill="#8D00FF"/>
<path d="M45.6446 5.35602e-07H2.33208C2.0259 -0.000207043 1.72268 0.0599245 1.43975 0.17695C1.15682 0.293976 0.899721 0.465604 0.683147 0.682031C0.466573 0.898459 0.294767 1.15545 0.17755 1.4383C0.0603325 1.72115 -7.03656e-08 2.02432 0 2.3305V45.6383C0.00125546 46.256 0.24751 46.8479 0.684724 47.2843C1.12194 47.7206 1.71439 47.9656 2.33208 47.9656H45.6446C46.2631 47.9656 46.8563 47.7199 47.2936 47.2826C47.731 46.8452 47.9767 46.2521 47.9767 45.6336V2.3305C47.9767 2.02432 47.9164 1.72115 47.7992 1.4383C47.6819 1.15545 47.5101 0.898459 47.2936 0.682031C47.077 0.465604 46.8199 0.293976 46.5369 0.17695C46.254 0.0599245 45.9508 -0.000207043 45.6446 5.35602e-07V5.35602e-07ZM32.7329 37.1648C31.2957 38.6164 29.5859 39.7698 27.7017 40.5585C25.8174 41.3473 23.7959 41.756 21.7532 41.7611C19.7105 41.7662 17.687 41.3676 15.7988 40.5882C13.9107 39.8088 12.1951 38.664 10.7508 37.2196C9.30645 35.7751 8.16176 34.0595 7.38251 32.1713C6.60327 30.2831 6.20482 28.2595 6.21006 26.2168C6.2153 24.1742 6.62413 22.1526 7.41306 20.2684C8.20199 18.3843 9.35546 16.6745 10.8072 15.2375L24.9751 1.06808L30.919 7.01204L16.7496 21.1815C15.4478 22.519 14.7251 24.3153 14.738 26.1817C14.7508 28.048 15.4981 29.8343 16.8182 31.1537C18.1383 32.4732 19.9249 33.2197 21.7912 33.2316C23.6576 33.2436 25.4536 32.5201 26.7905 31.2176L40.9599 17.0482L46.9086 23.0016L32.7329 37.1648Z" fill="#8D00FF"/>
</svg>
